<svg width="800" height="800" viewBox="0 0 800 800" fill="none" xmlns="http://www.w3.org/2000/svg">
<g clip-path="url(#clip0_742_180)">
<path d="M400 800C179.436 800 0.0148926 620.535 0.0148926 399.985C0.0148926 179.436 179.436 0 400 0C620.564 0 799.985 179.45 799.985 400C799.985 620.55 620.564 800 400 800ZM400 58.5116C211.71 58.5116 58.5414 211.71 58.5414 399.985C58.5414 588.246 211.71 741.429 400 741.429C588.276 741.429 741.444 588.246 741.444 399.985C741.429 211.71 588.276 58.5116 400 58.5116Z" fill="white"/>
<path d="M225.696 594.445C218.399 594.445 211.117 591.761 205.421 586.288C193.763 575.105 193.363 556.594 204.561 544.951C258.119 489.095 330.201 458.333 407.564 458.333C476.221 458.333 542.297 483.355 593.689 528.755C605.792 539.464 606.949 557.944 596.24 570.032C585.502 582.179 567.036 583.321 554.904 572.613C514.25 536.66 461.908 516.875 407.564 516.875C346.324 516.875 289.221 541.258 246.817 585.413C241.062 591.434 233.379 594.445 225.696 594.445Z" fill="white"/>
<path d="M309.57 399.97C330.901 399.97 348.192 382.679 348.192 361.348C348.192 340.018 330.901 322.726 309.57 322.726C288.24 322.726 270.948 340.018 270.948 361.348C270.948 382.679 288.24 399.97 309.57 399.97Z" fill="white"/>
<path d="M490.445 399.97C511.775 399.97 529.067 382.679 529.067 361.348C529.067 340.018 511.775 322.726 490.445 322.726C469.114 322.726 451.823 340.018 451.823 361.348C451.823 382.679 469.114 399.97 490.445 399.97Z" fill="white"/>
</g>
<defs>
<clipPath id="clip0_742_180">
<rect width="800" height="800" fill="white"/>
</clipPath>
</defs>
</svg>
